<svg viewBox="0 0 800.000000 397.000000" xmlns="http://www.w3.org/2000/svg"><g transform="translate(0.000000,397.000000) scale(0.100000,-0.100000)"
fill="currentColor" stroke="none">
<path d="M0 1985 l0 -1985 45 0 45 0 0 1985 0 1985 -45 0 -45 0 0 -1985z
M7970 1985 c0 -1758 2 -1985 15 -1985 13 0 15 227 15 1985 0 1758 -2 1985 -15
1985 -13 0 -15 -227 -15 -1985z M2895 3589 c-49 -4 -119 -15 -155 -24 -36 -9
-90 -22 -120 -29 -31 -7 -65 -18 -75 -24 -11 -6 -63 -27 -115 -48 -52 -20
-102 -42 -110 -49 -8 -7 -26 -16 -39 -20 -13 -4 -46 -20 -73 -36 -27 -16 -51
-29 -54 -29 -5 0 -162 -89 -194 -110 -8 -6 -22 -13 -30 -17 -8 -3 -68 -37
-132 -75 -64 -37 -120 -68 -124 -68 -4 0 -15 -6 -23 -14 -9 -7 -47 -30 -86
-51 -38 -20 -77 -44 -86 -51 -8 -8 -19 -14 -23 -14 -4 0 -62 -32 -129 -71 -67
-38 -129 -74 -137 -78 -8 -4 -46 -25 -85 -46 -38 -21 -97 -52 -130 -70 -33
-17 -91 -49 -130 -70 -38 -21 -95 -51 -125 -68 -135 -72 -282 -162 -317 -192
-32 -27 -37 -38 -36 -71 1 -50 35 -80 160 -140 50 -24 106 -56 123 -70 29 -25
80 -94 125 -168 11 -18 33 -55 49 -82 247 -409 594 -763 941 -958 17 -9 44
-25 60 -35 77 -46 338 -171 357 -171 8 0 22 -6 33 -14 21 -14 257 -98 340
-121 28 -7 73 -20 100 -29 28 -8 70 -20 95 -26 25 -6 63 -16 85 -21 172 -44
463 -98 645 -121 112 -14 796 -14 930 0 181 20 235 27 545 78 55 9 129 25 164
35 35 10 79 19 97 19 30 0 87 15 179 45 22 8 56 17 76 20 68 12 397 129 504
180 465 218 743 438 1031 815 68 89 151 212 307 457 47 74 90 109 159 132 101
33 235 163 211 206 -10 17 -158 115 -228 151 -27 14 -77 41 -110 60 -33 19
-73 42 -90 50 -16 8 -48 25 -70 38 -22 12 -69 39 -105 58 -36 20 -105 59 -153
87 -49 28 -90 51 -92 51 -3 0 -220 123 -265 150 -109 66 -320 190 -324 190 -3
0 -25 14 -49 30 -25 17 -48 30 -52 30 -3 0 -59 31 -123 68 -208 122 -483 249
-602 277 -30 8 -86 22 -125 32 -55 14 -108 18 -245 18 -163 0 -182 -2 -275
-29 -99 -28 -132 -41 -290 -116 -201 -96 -232 -105 -413 -127 -70 -8 -243 14
-307 39 -73 28 -126 52 -296 131 -53 25 -111 48 -130 52 -18 4 -40 11 -49 15
-64 33 -244 51 -395 39z m250 -175 c90 -20 159 -41 212 -65 23 -10 47 -19 53
-19 7 0 24 -7 38 -14 15 -8 43 -22 62 -30 293 -124 378 -149 520 -149 89 0
122 4 215 32 105 30 223 76 330 128 87 42 247 100 325 118 85 19 261 17 365
-4 73 -15 196 -51 210 -61 6 -4 26 -11 45 -15 19 -4 46 -13 60 -21 14 -7 81
-40 150 -73 128 -62 220 -110 325 -172 33 -19 67 -38 75 -42 8 -4 22 -11 30
-17 8 -5 60 -35 115 -66 55 -32 118 -68 140 -80 22 -13 54 -30 70 -38 17 -8
57 -31 90 -50 33 -19 87 -49 120 -66 59 -31 79 -41 113 -60 9 -5 46 -25 82
-43 36 -18 99 -52 140 -74 41 -22 93 -50 115 -61 22 -11 102 -50 178 -88 75
-38 150 -79 165 -91 27 -23 27 -23 7 -39 -33 -26 -147 -75 -285 -121 -46 -15
-88 -18 -265 -18 -210 0 -272 7 -445 50 -30 7 -77 16 -105 20 -27 4 -75 13
-105 20 -150 37 -191 44 -267 50 -46 3 -95 10 -110 16 -93 35 -604 34 -749 -1
-43 -11 -92 -20 -108 -20 -26 0 -198 -52 -286 -86 -19 -7 -78 -26 -130 -43
-52 -16 -120 -37 -150 -47 -146 -46 -429 -72 -603 -56 -220 20 -285 34 -517
114 -63 22 -135 46 -160 53 -25 7 -79 25 -120 39 -41 14 -84 26 -96 26 -11 0
-50 9 -85 19 -189 56 -609 58 -808 4 -29 -8 -85 -18 -125 -23 -39 -5 -105 -19
-146 -30 -41 -12 -111 -27 -155 -35 -44 -7 -98 -18 -120 -23 -152 -38 -244
-47 -480 -47 -260 0 -303 6 -425 62 -153 71 -149 86 42 183 296 151 385 197
583 305 22 12 72 39 110 60 39 20 95 52 125 70 51 30 148 84 228 126 18 9 38
22 45 27 7 5 41 25 77 45 36 19 99 54 140 77 241 135 462 245 540 269 19 5 67
21 105 35 39 14 84 26 100 26 17 1 50 7 75 14 66 19 242 19 325 0z m-354
-1285 c54 -10 131 -28 171 -40 40 -11 96 -26 123 -33 28 -7 80 -25 116 -40 36
-14 71 -26 78 -26 7 0 33 -8 59 -19 81 -32 221 -69 372 -98 135 -26 466 -25
600 0 153 30 306 69 405 103 28 10 82 29 120 42 39 13 93 30 120 37 28 8 82
23 120 34 180 54 446 79 645 62 156 -14 365 -49 460 -77 25 -7 79 -18 120 -23
41 -6 113 -20 160 -31 124 -29 441 -51 579 -40 116 9 141 7 141 -15 0 -7 -30
-57 -67 -112 -183 -271 -361 -471 -587 -658 -82 -69 -268 -195 -351 -239 -27
-14 -57 -30 -65 -35 -17 -10 -160 -77 -205 -97 -16 -7 -46 -20 -65 -28 -19 -9
-49 -20 -65 -25 -17 -5 -55 -19 -85 -31 -30 -12 -77 -28 -105 -35 -47 -13 -65
-19 -158 -52 -20 -7 -48 -13 -61 -13 -12 0 -52 -9 -87 -19 -112 -33 -406 -90
-569 -111 -314 -39 -411 -45 -765 -44 -225 0 -390 5 -441 12 -44 7 -130 17
-190 22 -60 5 -138 16 -174 24 -36 9 -103 23 -150 32 -75 15 -134 29 -310 75
-25 6 -76 23 -115 36 -38 14 -88 29 -110 34 -22 5 -53 16 -70 23 -16 8 -50 22
-75 32 -25 10 -65 26 -90 36 -472 198 -843 477 -1143 861 -132 169 -221 307
-207 321 5 5 132 10 282 11 272 1 334 7 483 47 22 6 78 16 125 24 47 7 126 22
175 34 119 27 270 52 375 61 129 11 370 0 481 -22z"/>
</g></svg>