<svg viewBox="0 0 760.000000 800.000000" xmlns="http://www.w3.org/2000/svg"><g transform="translate(0.000000,800.000000) scale(0.100000,-0.100000)"
fill="currentColor" stroke="none">
<path d="M0 7878 c1 -118 2 -122 18 -100 70 95 97 125 139 156 26 19 57 42 68
50 18 14 9 15 -102 16 l-123 0 0 -122z M4911 7958 l-33 -43 5 -115 c8 -149 -3
-232 -41 -311 -28 -58 -95 -128 -689 -723 -362 -362 -677 -681 -701 -710 -45
-53 -132 -215 -132 -245 0 -9 -7 -27 -17 -40 -20 -29 -31 -279 -15 -356 20
-98 81 -236 138 -311 117 -156 228 -231 459 -307 77 -26 277 -24 347 4 63 24
95 52 114 97 8 17 18 32 23 32 15 0 171 -156 171 -171 0 -8 -868 -882 -1929
-1944 -1355 -1356 -1935 -1943 -1950 -1973 -132 -264 -35 -545 227 -661 34
-15 65 -31 69 -34 3 -4 -117 -7 -268 -7 -237 0 -282 3 -334 18 -141 44 -241
113 -309 217 -21 30 -39 55 -42 55 -2 0 -4 -97 -4 -215 l0 -215 3800 0 3800 0
0 145 c0 80 -2 145 -5 145 -3 0 -29 -18 -58 -39 -54 -40 -138 -79 -217 -100
-34 -9 -779 -11 -3099 -9 l-3054 3 89 44 89 44 2821 2821 2821 2822 41 83 c42
83 42 84 42 197 0 90 -4 124 -20 165 -57 145 -176 252 -318 289 -56 14 -176
14 -235 -1 -26 -6 -57 -9 -69 -6 -13 4 -128 112 -257 242 -211 214 -232 239
-227 263 39 179 -7 423 -112 580 -53 81 -174 196 -253 242 -37 22 -72 40 -77
40 -5 0 -15 7 -22 15 -10 13 -54 15 -274 15 l-262 0 -33 -42z m487 -317 c58
-30 134 -112 169 -182 44 -88 44 -90 44 -207 0 -112 -14 -156 -78 -250 -16
-24 -331 -345 -699 -715 -409 -410 -685 -694 -707 -728 -58 -90 -105 -217
-115 -314 -11 -100 -22 -119 -66 -109 -93 20 -218 116 -268 206 -47 85 -60
140 -56 241 3 84 7 99 43 171 38 76 66 105 690 730 357 358 671 676 698 706
28 32 70 98 98 157 41 83 53 123 69 213 23 141 27 145 91 119 28 -10 67 -28
87 -38z m574 -1078 c98 -98 178 -184 178 -193 0 -22 -121 -140 -145 -140 -13
0 -81 61 -189 169 -93 92 -173 176 -178 185 -7 13 5 31 58 86 37 39 74 70 83
70 9 0 96 -80 193 -177z m-407 -399 c123 -123 175 -182 175 -198 0 -25 -118
-146 -142 -146 -7 0 -94 80 -192 179 -144 144 -177 182 -172 198 8 24 129 143
145 143 6 0 90 -79 186 -176z m1124 90 c43 -36 58 -91 37 -135 -24 -51 -5594
-5616 -5629 -5625 -66 -15 -137 27 -153 92 -17 67 -107 -26 2789 2872 1519
1520 2780 2777 2801 2793 52 39 111 40 155 3z m-1527 -491 c119 -119 178 -184
178 -199 0 -24 -119 -144 -143 -144 -19 0 -367 350 -367 369 0 17 128 151 144
151 5 0 90 -80 188 -177z m-400 -410 c98 -98 178 -185 178 -194 0 -15 -131
-149 -146 -149 -16 0 -364 355 -364 372 0 22 117 148 139 148 8 0 96 -80 193
-177z M7460 7992 c0 -4 16 -16 34 -26 19 -10 45 -29 57 -42 36 -38 49 -31 49
26 l0 50 -70 0 c-38 0 -70 -3 -70 -8z"/>
</g></svg>