<svg viewBox="0 0 487.000000 800.000000" xmlns="http://www.w3.org/2000/svg"><g transform="translate(0.000000,800.000000) scale(0.100000,-0.100000)"
fill="currentColor" stroke="none">
<path d="M1774 7661 c-78 -13 -145 -71 -174 -148 -19 -50 -20 -78 -20 -431 0
-377 0 -377 25 -437 l24 -59 -24 -52 c-21 -43 -25 -68 -25 -139 0 -100 15
-143 67 -197 37 -38 37 -38 25 -85 -6 -27 -15 -68 -18 -91 -7 -47 -31 -76 -79
-98 -16 -8 -48 -25 -70 -39 -22 -14 -53 -31 -70 -39 -16 -8 -75 -40 -130 -71
-55 -32 -143 -80 -195 -107 -52 -28 -102 -56 -111 -64 -8 -8 -19 -14 -24 -14
-4 0 -74 -37 -154 -83 -80 -46 -171 -96 -201 -112 -30 -15 -66 -36 -79 -46
-13 -11 -29 -19 -36 -19 -24 0 -112 -99 -124 -139 -16 -56 -16 -4783 1 -4832
17 -51 47 -87 98 -117 l45 -27 1975 0 1975 0 42 26 c55 33 84 71 105 139 17
52 18 201 18 2379 0 2305 0 2324 -20 2392 -16 53 -32 80 -71 123 -28 31 -57
56 -64 56 -7 0 -18 7 -25 15 -11 14 -26 23 -105 63 -16 8 -92 51 -168 94 -75
43 -147 83 -160 89 -12 5 -40 21 -62 34 -22 14 -54 31 -70 39 -17 8 -90 48
-163 90 -72 42 -146 82 -164 91 -18 8 -51 26 -73 40 -22 14 -51 30 -65 36 -48
20 -78 58 -84 108 -16 116 -13 126 39 174 l49 44 1 129 c0 84 -5 143 -14 171
-11 34 -11 47 0 75 16 42 25 727 11 848 -11 90 -22 108 -102 164 l-45 31 -735
2 c-404 0 -754 -2 -776 -6z m1497 -131 c10 -6 27 -25 36 -43 16 -29 18 -68 18
-402 0 -412 -1 -416 -68 -452 -30 -17 -82 -18 -737 -18 -664 0 -707 1 -743 18
-66 32 -67 40 -67 445 0 373 4 411 42 445 19 16 70 17 760 17 488 0 746 -4
759 -10z m14 -1026 c46 -18 62 -149 24 -198 l-20 -26 -769 0 -769 0 -21 22
c-16 18 -20 35 -20 94 0 66 2 74 26 93 26 21 33 21 780 21 414 0 760 -3 769
-6z m-91 -359 c13 -10 20 -35 27 -93 13 -115 48 -202 82 -202 5 0 76 -37 156
-83 80 -46 158 -88 174 -95 34 -15 35 -30 1 -42 -35 -14 -2233 -14 -2268 0
-34 12 -33 27 2 42 15 7 89 47 165 90 75 43 148 83 162 88 32 12 71 91 84 166
10 63 26 110 43 131 16 20 1345 18 1372 -2z m771 -659 c18 -12 109 -62 195
-108 19 -10 42 -22 50 -27 8 -5 57 -33 109 -62 101 -56 164 -112 187 -167 21
-50 21 -709 0 -738 -14 -19 -48 -19 -1997 -22 -1766 -2 -1985 0 -2006 13 l-23
15 0 361 c0 337 1 362 20 398 25 49 63 81 144 120 35 18 69 38 76 46 6 7 25
17 41 20 16 4 31 11 35 16 3 5 22 17 42 27 57 29 175 93 197 108 16 12 262 14
1465 14 1203 0 1449 -2 1465 -14z m543 -1258 c9 -9 12 -378 12 -1599 0 -1430
-2 -1589 -16 -1603 -14 -14 -209 -16 -2000 -16 -1350 0 -1992 3 -2005 10 -19
11 -19 39 -19 1603 0 1226 3 1596 12 1605 17 17 3999 17 4016 0z m-9 -3356
c22 -17 22 -22 19 -239 -3 -207 -4 -223 -24 -250 -11 -15 -32 -34 -45 -40 -35
-19 -3863 -18 -3899 0 -13 7 -35 30 -47 52 -22 38 -23 50 -23 258 0 216 0 218
23 227 13 5 845 9 1998 9 1870 1 1978 0 1998 -17z M2125 3891 c-81 -15 -202
-123 -266 -236 -39 -71 -69 -208 -69 -325 0 -147 43 -346 102 -468 28 -60 21
-133 -24 -247 -25 -62 -43 -134 -59 -232 l-23 -142 23 -150 c22 -150 45 -242
82 -333 10 -26 19 -54 19 -62 0 -14 29 -81 51 -116 5 -8 15 -26 21 -40 18 -38
56 -82 96 -112 68 -53 134 -28 176 66 21 48 24 71 29 291 5 227 7 244 32 309
32 86 106 197 160 242 58 47 93 46 149 -6 54 -50 119 -144 136 -196 7 -21 17
-44 21 -50 20 -25 31 -121 38 -339 5 -136 13 -243 20 -262 15 -38 77 -83 115
-83 18 0 45 14 77 41 48 40 56 51 100 137 12 23 25 45 30 48 5 3 9 15 9 27 0
13 9 40 20 62 11 21 23 55 26 74 4 20 12 47 19 61 7 14 18 59 24 100 7 41 18
97 26 124 20 67 20 257 0 322 -8 27 -20 78 -25 112 -6 35 -17 73 -24 85 -8 12
-17 38 -21 57 -4 19 -13 45 -21 57 -16 25 -19 114 -5 128 15 17 71 165 71 190
0 12 9 53 21 91 17 56 21 92 20 213 0 133 -3 153 -29 226 -15 44 -38 99 -50
123 -29 55 -123 149 -187 187 -47 28 -56 29 -160 29 l-110 1 -84 -49 c-59 -35
-97 -50 -130 -53 -48 -4 -52 -2 -166 64 -47 28 -66 33 -137 37 -46 3 -101 1
-123 -3z m200 -142 c33 -18 89 -47 124 -65 35 -19 77 -34 92 -34 16 0 84 29
152 65 137 72 185 84 238 62 93 -39 154 -100 209 -212 l40 -79 0 -166 c-1
-123 -5 -175 -16 -205 -8 -22 -21 -60 -29 -85 -8 -25 -28 -83 -44 -130 -38
-103 -38 -126 -5 -237 15 -49 35 -117 45 -152 10 -35 24 -70 31 -79 10 -11 13
-63 13 -191 0 -153 -3 -184 -21 -241 -12 -36 -32 -99 -44 -140 -26 -88 -41
-130 -87 -227 -28 -60 -38 -73 -57 -73 -13 0 -27 7 -30 16 -3 9 -6 93 -6 187
0 263 -10 327 -70 444 -55 110 -147 229 -188 244 -15 5 -39 16 -54 24 -40 23
-109 19 -166 -10 -114 -57 -244 -255 -282 -430 -5 -22 -9 -138 -10 -258 0
-187 -2 -218 -16 -224 -16 -6 -64 32 -64 51 0 6 -11 34 -25 61 -13 28 -25 55
-25 60 0 6 -8 26 -19 45 -10 19 -21 57 -25 84 -4 27 -14 59 -21 70 -7 12 -17
44 -20 71 -4 28 -13 77 -21 110 -8 33 -14 90 -14 126 0 71 33 246 54 288 8 14
19 50 25 79 6 30 18 63 26 75 23 33 20 171 -4 211 -10 17 -22 49 -26 71 -4 22
-11 45 -17 52 -5 6 -21 56 -35 110 -36 136 -36 298 -1 393 35 94 56 128 120
192 96 94 162 105 273 47z M2192 3574 c-29 -20 -29 -66 1 -94 40 -39 124 -90
146 -90 12 0 47 -9 78 -20 41 -14 83 -20 148 -20 65 0 107 6 148 20 31 11 66
20 78 20 27 0 83 33 127 74 73 68 11 137 -78 86 -121 -69 -138 -74 -270 -74
-140 -1 -186 12 -280 80 -53 38 -66 41 -98 18z M0 15 c0 -13 168 -15 1450 -15
822 0 1450 4 1450 9 0 5 -14 11 -31 15 -17 3 -670 6 -1450 6 -1255 0 -1419 -2
-1419 -15z"/>
</g></svg>