<svg viewBox="0 0 484.000000 800.000000" xmlns="http://www.w3.org/2000/svg"><g transform="translate(0.000000,800.000000) scale(0.100000,-0.100000)"
fill="currentColor" stroke="none">
<path d="M2856 7425 c-12 -9 -42 -15 -72 -15 -66 0 -91 -22 -55 -51 13 -11 39
-19 60 -19 20 0 42 -4 50 -9 24 -16 1 -31 -48 -31 -26 0 -56 -6 -67 -14 -17
-13 -18 -16 -3 -31 8 -8 39 -18 68 -22 48 -5 74 -23 57 -40 -3 -3 -34 -9 -68
-12 -34 -3 -63 -11 -65 -17 -7 -22 28 -44 70 -44 50 0 72 -12 64 -34 -5 -12
-20 -16 -56 -16 -57 0 -81 -7 -81 -25 0 -23 35 -44 79 -47 64 -4 67 -28 4 -28
-56 0 -90 -19 -80 -44 5 -11 19 -16 49 -16 48 0 96 -26 80 -42 -6 -6 -37 -13
-69 -17 -49 -5 -58 -9 -58 -26 0 -17 8 -21 51 -25 96 -10 108 -60 15 -60 -96
0 -96 -40 0 -55 54 -8 64 -13 67 -31 3 -20 -3 -22 -58 -26 -71 -5 -96 -22 -66
-44 11 -8 36 -14 57 -14 47 0 70 -24 39 -40 -12 -7 -33 -9 -46 -6 -29 8 -64
-9 -64 -30 0 -16 19 -26 59 -29 14 -1 36 -3 49 -3 15 -1 22 -8 22 -22 0 -20
-17 -25 -62 -22 -29 3 -68 -16 -68 -32 0 -22 33 -36 84 -36 31 0 46 -4 46 -13
0 -24 -24 -37 -66 -37 -25 0 -47 -6 -54 -15 -21 -25 5 -44 67 -47 41 -2 59 -8
67 -21 9 -15 7 -21 -9 -33 -131 -94 -137 -103 -182 -303 -20 -91 -40 -155 -53
-171 -35 -44 -88 -143 -106 -200 -17 -51 -19 -119 -21 -1030 -2 -922 -11
-1332 -43 -2060 -6 -124 -15 -351 -20 -505 -6 -154 -15 -345 -21 -425 -7 -80
-12 -244 -13 -365 -1 -218 -1 -221 27 -291 55 -140 125 -222 236 -277 l66 -32
175 0 175 0 76 37 c131 64 224 197 250 358 12 73 2 524 -21 890 -9 145 -25
518 -51 1170 -6 151 -13 763 -14 1360 -4 1042 -5 1088 -23 1150 -29 94 -46
130 -92 191 -22 30 -45 70 -49 89 -5 19 -18 71 -29 115 -11 44 -26 102 -33
130 -14 53 -59 111 -115 146 -56 34 -40 79 29 79 45 0 77 15 77 35 0 15 -22
23 -80 27 -28 2 -36 8 -38 26 -3 20 1 22 41 22 28 0 53 7 67 18 20 16 21 19 5
32 -9 7 -36 14 -61 15 -25 1 -51 8 -57 14 -18 18 20 43 55 36 31 -7 68 9 68
30 0 21 -34 36 -67 30 -34 -7 -58 7 -50 29 4 11 19 16 45 16 21 0 47 7 58 15
19 15 19 15 0 30 -11 8 -39 15 -63 15 -31 0 -45 5 -50 16 -8 22 25 47 54 39
28 -7 73 11 73 29 0 18 -22 26 -76 26 -32 0 -46 5 -51 16 -9 24 23 44 67 42
42 -1 60 7 60 28 0 18 -37 33 -79 32 -42 -1 -57 14 -36 36 10 10 33 16 61 16
32 0 46 5 51 16 9 25 -24 44 -74 44 -31 0 -43 4 -43 14 0 18 31 29 62 21 17
-4 29 0 42 14 30 33 14 50 -51 53 -50 3 -58 6 -58 23 0 17 8 21 52 25 57 6 79
20 70 44 -5 12 -20 16 -54 16 -56 0 -78 11 -70 34 4 11 19 16 46 16 24 0 48 7
62 20 24 20 24 20 5 35 -11 8 -38 15 -61 15 -46 0 -56 5 -48 26 3 9 20 14 48
14 29 0 47 6 60 20 27 30 5 50 -54 50 -26 0 -56 7 -67 15 -10 8 -28 14 -39 14
-11 0 -29 -6 -39 -14z m89 -1388 c25 -25 36 -49 49 -106 11 -48 13 -78 7 -84
-14 -14 -210 -15 -222 -1 -13 15 16 148 38 179 39 52 83 57 128 12z m51 -331
c77 -36 142 -120 182 -235 14 -41 16 -187 22 -1266 4 -742 11 -1279 18 -1370
6 -82 16 -285 22 -450 5 -165 15 -385 20 -490 5 -104 15 -289 20 -410 24 -499
24 -487 5 -561 -36 -137 -92 -216 -187 -263 -60 -30 -64 -31 -207 -31 -132 0
-151 2 -196 24 -87 40 -148 114 -186 226 -21 63 -21 75 -15 340 3 151 10 354
16 450 5 96 17 335 25 530 9 195 21 445 26 555 6 110 12 740 15 1400 4 1042 7
1210 21 1275 38 183 152 300 293 300 37 0 72 -8 106 -24z"/>
</g></svg>