<svg viewBox="0 0 800.000000 655.000000" xmlns="http://www.w3.org/2000/svg"><g transform="translate(0.000000,655.000000) scale(0.100000,-0.100000)"
fill="currentColor" stroke="none">
<path d="M1870 4986 c-30 -6 -97 -34 -148 -61 -168 -89 -285 -243 -319 -418
-17 -87 -13 -330 7 -466 16 -111 -24 -103 501 -101 403 1 455 3 471 17 15 13
18 32 18 102 0 105 24 159 80 178 50 17 666 17 699 0 51 -26 66 -61 69 -168 3
-88 6 -101 25 -114 18 -13 89 -15 473 -15 503 0 474 -4 489 70 9 43 32 90 45
90 14 0 20 -16 30 -77 6 -34 17 -63 27 -70 13 -10 124 -13 473 -13 350 0 460
3 472 13 12 9 17 36 21 107 5 105 17 141 56 167 23 16 61 18 361 21 372 4 377
3 416 -61 15 -26 18 -49 17 -124 -2 -85 0 -94 20 -108 18 -13 85 -15 472 -15
364 0 455 3 470 14 22 15 40 138 51 336 6 114 4 135 -20 235 -23 95 -35 123
-82 195 -31 47 -72 99 -92 115 -48 41 -145 105 -157 105 -6 0 -27 9 -48 20
-51 28 -174 43 -278 36 -99 -7 -114 -11 -229 -61 -381 -164 -677 -163 -1060 0
-47 20 -97 40 -113 45 -51 16 -230 23 -294 11 -80 -15 -215 -79 -278 -131 -78
-66 -177 -207 -204 -292 -7 -21 -17 -40 -22 -44 -18 -10 -48 27 -69 85 -40
108 -132 224 -223 283 -194 124 -417 140 -637 44 -205 -90 -343 -121 -535
-120 -198 1 -281 20 -540 124 -44 17 -105 38 -135 46 -66 17 -204 17 -280 0z
M2650 4000 c-18 -18 -20 -33 -20 -173 0 -210 -13 -197 195 -197 135 0 166 3
179 16 13 13 16 44 16 178 0 145 -2 165 -18 179 -16 14 -43 17 -175 17 -144 0
-159 -2 -177 -20z M5559 4001 c-23 -18 -24 -25 -27 -174 -4 -208 -15 -197 196
-197 112 0 163 4 176 13 15 11 17 32 17 177 0 212 11 200 -191 200 -131 0
-151 -2 -171 -19z M4800 3700 c-217 -3 -396 -7 -396 -8 -12 -18 -10 -46 11
-115 50 -172 55 -183 193 -467 44 -91 85 -183 90 -205 6 -22 10 -123 11 -225
1 -211 16 -435 37 -530 36 -169 46 -208 75 -288 37 -108 125 -314 151 -356
145 -236 294 -428 382 -493 39 -30 87 -30 123 1 22 19 28 32 27 65 -1 22 -7
47 -14 55 -6 8 -25 50 -41 93 -100 263 -138 452 -146 729 -9 305 14 394 136
514 53 52 80 70 136 91 132 50 216 44 351 -21 79 -39 135 -97 179 -185 46 -92
53 -153 49 -380 -4 -159 -26 -394 -40 -416 -2 -3 -17 -56 -34 -117 -16 -62
-50 -162 -75 -224 -25 -62 -45 -127 -45 -146 0 -46 37 -82 86 -82 31 0 46 9
106 67 75 74 192 223 253 324 22 35 44 71 51 79 14 17 58 104 99 195 26 59 36
85 89 232 14 40 42 150 62 245 l38 173 5 305 6 306 47 94 c84 172 146 305 153
330 4 14 15 39 25 55 21 36 80 234 80 269 0 13 -7 27 -16 30 -9 3 -203 6 -433
6 -342 0 -421 -3 -436 -14 -17 -12 -20 -31 -25 -119 -8 -172 3 -167 -418 -169
-372 -2 -372 -2 -409 72 -18 34 -23 61 -23 121 0 86 -11 104 -70 110 -19 3
-213 2 -430 -1z M1506 3684 c-9 -8 -16 -18 -16 -21 0 -20 84 -272 99 -297 10
-17 22 -42 26 -56 4 -14 48 -108 98 -210 l91 -185 7 -325 c8 -324 12 -364 54
-535 38 -156 78 -275 136 -402 10 -23 19 -45 19 -49 0 -12 137 -238 179 -295
22 -30 55 -74 73 -99 48 -65 146 -171 181 -197 41 -31 91 -30 122 2 31 30 33
80 6 133 -70 138 -136 365 -161 558 -29 219 -25 517 8 607 26 72 102 168 162
206 60 39 169 71 239 71 67 0 187 -38 241 -75 90 -62 155 -165 171 -269 15
-92 5 -503 -14 -611 -22 -122 -90 -350 -127 -425 -10 -19 -25 -57 -34 -84 -34
-101 28 -166 119 -124 38 17 208 210 279 318 90 135 156 247 171 289 7 20 30
74 50 121 21 47 44 108 51 135 8 28 21 70 29 95 14 43 56 233 70 315 4 22 10
177 14 345 l6 305 67 130 c102 201 154 320 198 457 43 135 47 157 28 176 -19
19 -847 17 -873 -2 -15 -11 -20 -32 -25 -112 -7 -111 -17 -136 -63 -161 -29
-16 -66 -18 -357 -18 -300 0 -328 2 -364 19 -51 26 -66 64 -66 169 0 69 -3 87
-18 100 -17 15 -62 17 -440 17 -369 0 -422 -2 -436 -16z"/>
</g></svg>