<svg viewBox="0 0 790.000000 800.000000" xmlns="http://www.w3.org/2000/svg"><g transform="translate(0.000000,800.000000) scale(0.100000,-0.100000)"
fill="currentColor" stroke="none">
<path d="M867 7126 l-867 -871 0 -302 c0 -167 3 -303 8 -303 4 0 30 -22 58
-48 27 -26 75 -69 105 -96 75 -69 305 -284 414 -387 49 -47 113 -105 140 -129
28 -25 91 -83 140 -130 75 -71 198 -185 336 -311 49 -45 273 -254 359 -335 47
-44 117 -109 155 -144 39 -35 131 -120 205 -190 74 -70 160 -149 190 -176 30
-27 66 -61 81 -74 30 -30 260 -243 344 -320 33 -30 96 -88 140 -130 44 -41
112 -104 151 -140 38 -36 128 -119 200 -186 71 -66 158 -147 194 -179 36 -32
67 -62 70 -65 3 -4 199 -186 435 -405 237 -219 455 -421 485 -450 119 -112
210 -168 340 -212 78 -26 291 -26 375 1 86 27 180 78 258 141 37 30 75 55 85
55 9 0 98 -81 197 -181 208 -209 247 -239 317 -239 49 0 106 27 137 64 7 9 21
16 30 16 10 0 57 -39 106 -86 l89 -87 -28 -23 c-15 -13 -34 -24 -43 -24 -9 0
-60 -24 -112 -52 -108 -60 -241 -182 -280 -258 -94 -183 -94 -358 0 -542 61
-119 267 -261 442 -304 15 -3 30 -10 33 -15 7 -12 1209 -12 1232 0 9 6 46 22
82 36 168 68 281 150 398 288 l32 39 0 444 c0 409 -1 445 -17 462 -10 10 -44
51 -76 90 -78 97 -214 217 -333 294 -185 121 -229 146 -364 211 -207 100 -260
124 -329 147 -35 12 -86 32 -113 46 l-49 25 6 53 c13 100 5 111 -215 331 -110
110 -200 205 -200 211 0 6 27 44 59 84 32 39 75 102 94 140 59 112 87 272 68
390 -21 128 -31 164 -67 229 -55 99 -69 116 -330 396 -66 72 -271 292 -454
490 -184 198 -395 425 -470 505 -75 80 -167 179 -205 220 -63 69 -102 111
-264 285 -31 33 -108 116 -171 185 -63 69 -117 127 -120 130 -12 11 -302 322
-405 434 -61 66 -123 134 -140 152 -101 107 -157 167 -210 224 -32 36 -91 99
-130 140 -38 42 -122 132 -185 200 -63 69 -151 163 -195 210 -44 47 -138 149
-210 225 -71 77 -160 171 -196 210 -36 38 -126 135 -199 215 -74 80 -152 164
-175 188 -22 24 -41 48 -43 53 -2 5 -113 8 -265 7 l-262 -1 -868 -871z m1222
542 c217 -231 321 -349 321 -364 0 -16 -1717 -1736 -1752 -1755 -18 -9 -69 34
-328 277 -41 38 -85 79 -97 89 -13 11 -23 29 -23 41 0 15 258 279 887 908 488
487 894 886 901 886 7 0 48 -37 91 -82z m665 -716 c34 -37 93 -101 131 -142
38 -41 103 -111 144 -155 42 -44 130 -138 196 -210 168 -184 334 -362 374
-404 19 -20 85 -90 146 -156 61 -66 124 -134 140 -151 17 -17 50 -53 75 -80
326 -352 748 -806 844 -908 67 -71 128 -137 136 -146 8 -9 92 -100 186 -201
94 -101 192 -206 217 -234 26 -27 47 -57 47 -65 0 -23 -1511 -1530 -1535
-1530 -11 0 -45 24 -75 52 -30 28 -111 103 -180 167 -331 309 -700 651 -970
901 -69 63 -138 128 -155 145 -16 16 -55 51 -85 79 -52 47 -229 211 -405 376
-44 42 -107 100 -140 130 -33 30 -118 110 -190 176 -71 66 -200 185 -285 264
-256 238 -271 252 -362 339 -49 47 -88 92 -88 100 0 9 389 405 864 880 805
804 865 862 885 851 12 -6 50 -41 85 -78z m2989 -3219 c144 -150 256 -274 288
-317 42 -56 73 -165 65 -224 -9 -71 -38 -138 -84 -196 -23 -28 -272 -280 -554
-561 -590 -587 -566 -568 -722 -567 -142 0 -149 5 -451 286 -156 146 -165 155
-165 171 0 17 1494 1505 1513 1505 9 0 59 -44 110 -97z m347 -1423 c66 -67
120 -128 120 -137 0 -25 -400 -423 -425 -423 -20 0 -265 235 -265 254 0 18
414 426 432 426 10 0 72 -54 138 -120z m388 -544 c48 -18 110 -41 137 -51 74
-26 172 -69 330 -146 348 -169 589 -362 679 -544 l40 -80 -1 -118 c-1 -97 -5
-130 -24 -180 -29 -80 -61 -130 -112 -178 -49 -46 -175 -113 -232 -123 -22 -4
-60 -14 -85 -21 -97 -28 -218 -39 -430 -39 -204 1 -386 18 -452 43 -13 4 -45
11 -73 15 -102 14 -226 88 -269 160 -36 62 -36 140 0 201 83 143 423 263 749
265 114 1 164 17 207 68 54 65 42 181 -24 235 -46 37 -85 44 -228 37 -63 -3
-124 -2 -135 3 -29 13 -345 329 -345 345 0 8 28 43 62 78 73 77 82 78 206 30z
M7850 7990 c0 -15 31 -60 41 -60 5 0 9 16 9 35 0 31 -3 35 -25 35 -14 0 -25
-5 -25 -10z M7866 172 c-15 -30 -94 -107 -139 -136 -15 -10 -27 -22 -27 -27 0
-5 45 -9 100 -9 l100 0 0 100 c0 104 -8 121 -34 72z M0 45 l0 -45 55 0 c30 0
55 5 55 10 0 6 -4 10 -9 10 -5 0 -28 16 -51 35 -23 19 -44 35 -46 35 -2 0 -4
-20 -4 -45z"/>
</g></svg>