<svg viewBox="0 0 800.000000 650.000000" xmlns="http://www.w3.org/2000/svg"><g transform="translate(0.000000,650.000000) scale(0.100000,-0.100000)"
fill="currentColor" stroke="none">
<path d="M2965 5211 c-65 -17 -107 -42 -156 -91 -85 -85 -127 -218 -99 -318 6
-24 36 -99 66 -166 60 -135 65 -171 33 -231 -32 -61 -67 -93 -126 -115 -158
-59 -374 31 -444 184 -52 114 6 244 124 278 89 25 114 65 77 119 -18 24 -28
29 -64 29 -92 0 -218 -86 -267 -182 -30 -59 -41 -141 -28 -218 19 -107 22 -99
-66 -146 -130 -68 -216 -172 -245 -297 -15 -64 -12 -200 6 -279 9 -38 13 -83
10 -99 -3 -16 -48 -81 -101 -145 -192 -233 -243 -335 -275 -544 -31 -213 -61
-317 -145 -515 -110 -257 -148 -356 -178 -460 -29 -103 -31 -121 -32 -270 0
-158 0 -161 34 -254 108 -293 349 -495 713 -597 51 -14 112 -32 136 -40 117
-38 209 14 284 161 75 146 93 192 132 345 32 129 34 142 46 325 21 316 43 413
131 584 54 104 66 125 145 248 98 152 181 316 220 432 31 94 47 126 93 185 83
106 243 360 332 527 196 367 266 458 449 579 116 76 267 130 366 130 95 0 255
-59 388 -143 159 -101 215 -171 410 -517 165 -293 258 -444 342 -555 56 -74
74 -109 106 -200 57 -162 85 -216 264 -503 121 -193 172 -306 200 -436 8 -39
21 -171 29 -293 20 -302 61 -469 167 -678 51 -100 75 -132 124 -165 61 -43
105 -47 195 -21 206 61 249 75 304 98 119 49 277 159 346 239 19 21 36 41 39
44 21 19 84 117 113 176 69 137 88 326 52 514 -18 93 -81 282 -132 390 -143
308 -180 429 -228 750 -16 100 -71 226 -139 315 -17 22 -75 93 -128 158 -71
85 -98 126 -98 145 0 15 10 75 22 133 21 103 22 107 5 193 -33 165 -110 269
-251 340 -43 21 -80 44 -82 50 -2 6 2 34 11 61 39 131 -4 276 -107 357 -132
103 -265 104 -256 0 3 -35 6 -38 73 -65 120 -48 159 -101 153 -207 -3 -61 -7
-73 -47 -124 -51 -69 -112 -110 -202 -136 -78 -24 -129 -25 -193 -6 -65 20
-112 58 -142 118 -35 69 -30 108 34 240 60 124 76 199 61 290 -18 114 -81 198
-191 255 -44 23 -66 27 -128 28 -134 0 -210 -46 -379 -233 -156 -172 -190
-185 -427 -156 -221 26 -364 29 -507 9 -67 -9 -167 -18 -222 -18 -140 -3 -159
8 -330 188 -112 119 -148 150 -200 176 -68 33 -161 46 -220 30z m162 -162 c26
-13 70 -51 111 -97 121 -138 208 -219 263 -245 95 -46 160 -51 371 -28 224 25
312 26 483 5 359 -43 430 -19 636 212 120 136 175 173 252 174 55 0 90 -16
128 -57 73 -77 77 -163 16 -285 -63 -126 -77 -172 -77 -251 1 -53 7 -87 25
-127 30 -70 111 -152 184 -186 31 -14 63 -29 71 -33 24 -13 23 -56 -2 -103
-20 -38 -23 -57 -23 -158 0 -108 2 -119 32 -178 17 -34 49 -86 72 -116 25 -33
39 -59 35 -69 -3 -9 -38 -43 -78 -76 -40 -33 -88 -81 -107 -107 -19 -26 -46
-60 -62 -76 -25 -28 -29 -29 -50 -16 -22 15 -113 138 -142 193 -9 17 -40 71
-70 120 -30 50 -69 117 -86 150 -147 279 -283 484 -371 556 -88 72 -212 150
-293 186 -151 65 -156 66 -290 71 -122 4 -135 2 -209 -23 -86 -30 -155 -60
-201 -90 -249 -157 -314 -232 -505 -580 -51 -93 -101 -183 -111 -200 -10 -16
-34 -59 -54 -94 -68 -117 -176 -271 -202 -288 -29 -19 -18 -29 -126 107 -24
30 -70 76 -102 103 -33 26 -63 53 -67 61 -5 8 8 33 33 67 78 104 109 188 109
299 0 66 -17 147 -39 189 -21 39 -6 67 46 87 77 30 156 95 199 165 39 63 39
65 39 165 l0 101 -54 113 c-65 134 -76 201 -43 266 21 40 61 82 97 102 33 19
115 14 162 -9z m-807 -861 c55 -29 122 -71 150 -93 146 -115 141 -338 -11
-469 -23 -20 -53 -36 -65 -36 -28 0 -250 72 -407 132 -16 6 -39 30 -55 57 -24
42 -27 55 -27 146 0 93 2 104 32 161 52 99 133 153 230 154 44 0 69 -8 153
-52z m3895 28 c124 -58 186 -206 156 -368 -17 -87 -43 -113 -144 -150 -172
-62 -318 -108 -343 -108 -35 0 -119 87 -152 158 -21 45 -26 72 -26 127 1 122
56 198 205 286 145 84 215 97 304 55z m-4067 -721 c83 -20 128 -44 179 -97 48
-49 81 -116 89 -180 5 -46 -29 -249 -64 -374 -63 -231 -197 -359 -354 -341
-95 12 -266 59 -306 84 -79 51 -132 180 -132 317 1 184 81 360 221 485 64 57
119 87 197 105 74 19 95 19 170 1z m4150 0 c34 -8 82 -25 105 -36 112 -57 235
-206 285 -342 22 -63 26 -88 26 -202 1 -113 -2 -138 -22 -191 -25 -66 -86
-138 -130 -155 -73 -28 -289 -71 -334 -66 -147 18 -253 151 -318 402 -36 136
-50 312 -31 380 13 49 88 136 145 170 42 25 139 53 186 54 14 0 53 -6 88 -14z
m-3664 -243 c60 -73 95 -156 102 -242 l6 -75 -55 -110 c-31 -60 -80 -147 -109
-192 -91 -141 -136 -215 -174 -288 -45 -85 -52 -95 -73 -95 -17 0 -111 111
-111 131 0 6 40 50 89 97 67 66 95 103 119 153 73 157 120 352 128 534 3 61 7
116 9 123 8 23 30 12 69 -36z m3086 -40 c0 -154 58 -416 124 -556 43 -93 126
-197 180 -226 47 -25 44 -52 -16 -124 -29 -36 -57 -66 -63 -66 -10 0 -65 80
-65 95 0 14 -132 235 -200 335 -16 23 -76 131 -106 190 -7 14 -18 46 -25 71
-26 96 36 274 117 338 47 37 54 29 54 -57z m-4215 -672 c0 -18 -6 -26 -22 -28
-18 -3 -23 1 -23 21 0 28 9 39 30 35 9 -2 15 -14 15 -28z m5315 15 c17 -20 5
-45 -20 -45 -23 0 -35 22 -26 45 7 19 30 19 46 0z m-4900 -203 c119 -36 165
-60 211 -109 64 -66 83 -116 83 -213 0 -73 -5 -97 -33 -167 -37 -92 -94 -165
-150 -189 -52 -23 -167 -52 -233 -60 -43 -5 -73 -1 -128 15 -118 36 -187 92
-231 186 -34 72 -32 248 4 387 44 169 75 190 272 184 86 -3 131 -11 205 -34z
m4831 6 c34 -20 51 -38 63 -68 51 -127 61 -415 18 -495 -49 -92 -122 -143
-245 -171 -76 -17 -83 -17 -164 -1 -176 37 -242 77 -294 180 -93 183 -88 315
16 435 45 52 101 81 220 115 122 35 126 36 240 33 89 -1 105 -4 146 -28z m327
-508 c26 -187 -5 -328 -106 -469 -79 -112 -188 -205 -313 -266 -78 -39 -337
-125 -377 -125 -33 0 -80 53 -114 130 -16 36 -36 79 -45 95 -36 71 -104 379
-89 404 8 13 32 4 72 -26 89 -67 272 -123 401 -123 84 0 207 30 267 65 125 73
196 172 226 317 33 155 29 143 46 126 10 -10 22 -59 32 -128z m-5803 22 c11
-74 21 -104 54 -161 112 -191 331 -276 578 -225 103 21 197 58 260 101 71 49
88 42 78 -35 -25 -204 -135 -493 -208 -546 -27 -20 -28 -20 -100 -2 -121 31
-238 72 -317 111 -224 111 -391 322 -422 533 -20 138 17 361 53 325 6 -6 16
-51 24 -101z M1933 3139 c-32 -16 -64 -29 -70 -29 -21 0 -53 -38 -53 -63 0
-13 11 -34 25 -47 14 -13 31 -44 37 -67 20 -80 79 -96 134 -37 19 20 50 40 69
45 83 23 86 67 9 154 -31 35 -64 65 -74 68 -11 3 -45 -8 -77 -24z M6268 3162
c-25 -11 -128 -131 -128 -150 0 -30 27 -58 74 -76 24 -9 51 -28 60 -41 36 -55
118 -37 130 28 4 19 20 52 37 73 23 29 29 44 24 64 -9 33 -24 50 -45 50 -9 0
-42 14 -73 30 -31 17 -58 30 -59 29 -2 0 -10 -3 -20 -7z M1750 2134 c-19 -7
-47 -13 -61 -13 -34 -1 -59 -30 -59 -67 0 -36 6 -44 50 -74 19 -13 50 -37 69
-53 25 -22 40 -27 60 -22 33 7 101 78 101 105 0 32 -26 87 -54 115 -27 27 -53
30 -106 9z M6438 2140 c-22 -14 -68 -94 -68 -121 0 -29 43 -85 81 -105 34 -17
67 -11 87 17 7 10 33 31 58 45 68 40 83 83 41 122 -13 12 -36 22 -50 22 -15 0
-44 7 -64 15 -41 17 -61 18 -85 5z"/>
</g></svg>